<?xml version="1.0" encoding="UTF-8"?> <svg xmlns="http://www.w3.org/2000/svg" id="black" width="962.281" height="271.875" viewBox="0 0 962.281 271.875"><defs><style> .cls-1 { fill: #fff; } .cls-1, .cls-2 { fill-rule: evenodd; } .cls-2 { fill: #ff6f00; } </style></defs><path id="Inoterior" class="cls-1" d="M318.165,79.09h-22.95V202h22.95V79.09ZM365.594,202V138.93a36.561,36.561,0,0,1,9.01-6.715,21.864,21.864,0,0,1,10.2-2.465q7.395,0,11.093,4.377t3.7,12.368V202h21V146.5a44.442,44.442,0,0,0-1.912-13.388,29.921,29.921,0,0,0-5.61-10.455,25.045,25.045,0,0,0-9.223-6.8,31.268,31.268,0,0,0-12.665-2.422,36.848,36.848,0,0,0-8.16.85,31.619,31.619,0,0,0-7.012,2.465,38.907,38.907,0,0,0-6.2,3.825,47.864,47.864,0,0,0-5.568,4.93l-1.445-6.885a5.158,5.158,0,0,0-5.355-3.825H344.6V202h21Zm95.115-85.425a38.556,38.556,0,0,0-13.643,8.925,39.676,39.676,0,0,0-8.755,14.11,57.66,57.66,0,0,0,0,37.315,40.536,40.536,0,0,0,8.755,14.195,37.981,37.981,0,0,0,13.643,9.01,51.625,51.625,0,0,0,35.487,0,37.66,37.66,0,0,0,13.558-9.01,40.374,40.374,0,0,0,8.67-14.195,58.409,58.409,0,0,0,0-37.315,39.518,39.518,0,0,0-8.67-14.11,38.227,38.227,0,0,0-13.558-8.925A51.625,51.625,0,0,0,460.709,116.575Zm1.445,63.2q-5.272-7.35-5.27-21.377t5.27-21.462q5.269-7.437,16.32-7.438,10.879,0,16.107,7.395t5.228,21.505q0,14.11-5.228,21.42t-16.107,7.31Q467.422,187.125,462.154,179.772Zm116.7,21.633a31.784,31.784,0,0,0,10.54-5.78l-6.29-10.2a7.186,7.186,0,0,0-1.275-1.4,2.414,2.414,0,0,0-1.53-.467,2.928,2.928,0,0,0-1.53.467q-0.765.47-1.742,0.978a17.94,17.94,0,0,1-2.295.977,9.855,9.855,0,0,1-3.273.468,6.919,6.919,0,0,1-5.44-2.295,9.264,9.264,0,0,1-2.04-6.375v-47.26h22.95v-14.96h-22.95V88.1H553.1a4.984,4.984,0,0,0-3.1.935,4.2,4.2,0,0,0-1.573,2.635l-4.42,23.8-14.025,2.3v8.33a4.027,4.027,0,0,0,4.165,4.42h8.84V179.22q0,11.306,6.12,17.722t17.425,6.418A39.242,39.242,0,0,0,578.858,201.405Zm43.306-84.575a39.039,39.039,0,0,0-13.175,9.222,40.373,40.373,0,0,0-8.287,13.685,48.276,48.276,0,0,0-2.89,16.788,56.57,56.57,0,0,0,3.315,20.187,41.837,41.837,0,0,0,9.1,14.62,37.813,37.813,0,0,0,13.6,8.925,46.6,46.6,0,0,0,16.915,3.018,68.826,68.826,0,0,0,9.477-.68,49.533,49.533,0,0,0,9.6-2.338,43.793,43.793,0,0,0,9.053-4.42,34.962,34.962,0,0,0,7.82-6.842l-6.12-7.65a4.9,4.9,0,0,0-1.615-1.445,4.549,4.549,0,0,0-2.21-.51,8.131,8.131,0,0,0-4.038,1.19q-2.083,1.191-4.845,2.635a41.168,41.168,0,0,1-6.46,2.635,28.831,28.831,0,0,1-8.8,1.19q-10.371,0-16.66-6.29t-7.225-19.72h53.89a6.343,6.343,0,0,0,2.38-.383,3.1,3.1,0,0,0,1.487-1.274,6.338,6.338,0,0,0,.765-2.466,30.459,30.459,0,0,0,.213-3.952,46.872,46.872,0,0,0-2.8-16.788,35.174,35.174,0,0,0-7.82-12.41,33.259,33.259,0,0,0-11.943-7.692,42.362,42.362,0,0,0-15.172-2.635A43.409,43.409,0,0,0,622.164,116.83ZM648.3,130.047a16.118,16.118,0,0,1,5.78,4.293,17.764,17.764,0,0,1,3.4,6.332,26.2,26.2,0,0,1,1.105,7.693h-39.44q1.444-9.519,6.63-14.705t14.365-5.185A19.711,19.711,0,0,1,648.3,130.047ZM715.534,202V147.685a27.828,27.828,0,0,1,7.9-10.583,17.809,17.809,0,0,1,11.22-3.612,23.363,23.363,0,0,1,5.865.595,14.3,14.3,0,0,0,3.485.595,3.741,3.741,0,0,0,2.295-.638,3.248,3.248,0,0,0,1.105-2.167l2.72-15.725a18.242,18.242,0,0,0-10.71-2.975,23.076,23.076,0,0,0-14.11,4.675,41.425,41.425,0,0,0-10.965,12.75l-1.275-10.54a6.851,6.851,0,0,0-1.7-4.08q-1.275-1.19-4.5-1.19H694.539V202h21Zm49.809-87.21V202h21V114.79h-21Zm23.035-30.685a13.726,13.726,0,0,0-2.932-4.25,14.059,14.059,0,0,0-4.293-2.848,13.18,13.18,0,0,0-5.27-1.062,12.665,12.665,0,0,0-5.142,1.063,13.639,13.639,0,0,0-4.208,2.848,13.487,13.487,0,0,0-2.847,4.25,13.145,13.145,0,0,0-1.063,5.27,12.335,12.335,0,0,0,1.063,5.1,13.756,13.756,0,0,0,2.847,4.165,13.6,13.6,0,0,0,4.208,2.847,12.631,12.631,0,0,0,5.142,1.063,13.145,13.145,0,0,0,5.27-1.063,13.856,13.856,0,0,0,7.225-7.012,11.967,11.967,0,0,0,1.1-5.1A12.749,12.749,0,0,0,788.378,84.105Zm41.139,32.47a38.561,38.561,0,0,0-13.642,8.925,39.676,39.676,0,0,0-8.755,14.11,57.66,57.66,0,0,0,0,37.315,40.536,40.536,0,0,0,8.755,14.195,37.986,37.986,0,0,0,13.642,9.01,51.628,51.628,0,0,0,35.488,0,37.656,37.656,0,0,0,13.557-9.01,40.391,40.391,0,0,0,8.671-14.195,58.409,58.409,0,0,0,0-37.315,39.534,39.534,0,0,0-8.671-14.11,38.223,38.223,0,0,0-13.557-8.925A51.628,51.628,0,0,0,829.517,116.575Zm1.446,63.2q-5.273-7.35-5.27-21.377t5.27-21.462q5.268-7.437,16.319-7.438,10.879,0,16.108,7.395t5.228,21.505q0,14.11-5.228,21.42t-16.108,7.31Q836.231,187.125,830.963,179.772ZM927.692,202V147.685a27.828,27.828,0,0,1,7.9-10.583,17.809,17.809,0,0,1,11.22-3.612,23.363,23.363,0,0,1,5.865.595,14.3,14.3,0,0,0,3.485.595,3.741,3.741,0,0,0,2.295-.638,3.248,3.248,0,0,0,1.105-2.167l2.72-15.725a18.242,18.242,0,0,0-10.71-2.975,23.076,23.076,0,0,0-14.11,4.675A41.425,41.425,0,0,0,926.5,130.6l-1.275-10.54a6.851,6.851,0,0,0-1.7-4.08q-1.275-1.19-4.5-1.19H906.7V202h21Z" transform="translate(0 -3.063)"></path><path class="cls-2" d="M79.729,25.468L63.767,34.812V53.505l15.961-9.344L118,21.753l38.269,22.408,15.966,9.344V34.812l-15.966-9.344L118,3.059ZM63.767,90.892v82.2L118,204.839l54.235-31.752v-82.2l15.962,9.345v63.506l15.965-9.345V90.892L118,40.446,31.836,90.892V154.4L47.8,163.743V100.237Zm15.961,9.345V81.547L118,59.139l38.269,22.408v82.2L118,186.146l-38.273-22.4V100.237Z" transform="translate(0 -3.063)"></path><path id="Shape_650_copy" data-name="Shape 650 copy" class="cls-2" d="M141.947,246.9l78.184-45.769V62.854L236.093,72.2V210.473l-59.044,34.57-35.1,20.549-15.962,9.349v-56.08l15.962-9.349L188.2,182.436l15.965-9.349V191.78l-62.217,36.425V246.9Zm-47.894,0L15.874,201.129V62.854L-0.093,72.2V210.473l59.047,34.57,35.1,20.549,15.966,9.349v-56.08l-15.966-9.349L47.8,182.436l-15.965-9.349V191.78l62.217,36.425V246.9Z" transform="translate(0 -3.063)"></path></svg> 